<svg xmlns="http://www.w3.org/2000/svg" viewBox="0 0 760 516" width="760" height="516" role="img" aria-labelledby="server-title server-desc"><title id="server-title">서버가 하는 일</title><desc id="server-desc">같은 ASGI 래퍼로 잰 서버 처리 시간과 브로드캐스트 팬아웃, 낮을수록 좋다. 메시지 하나의 서버 처리, 받은 때부터 보낼 때까지 (ms) — wireview · 값 하나 변경: 0.85 ms; 메시지 하나의 서버 처리, 받은 때부터 보낼 때까지 (ms) — FastAPI + React · 값 하나 변경: 0.03 ms; 메시지 하나의 서버 처리, 받은 때부터 보낼 때까지 (ms) — FastAPI + 손 JS · 값 하나 변경: 0.03 ms; 메시지 하나의 서버 처리, 받은 때부터 보낼 때까지 (ms) — wireview · 50항목 맨 앞 삽입: 0.89 ms; 메시지 하나의 서버 처리, 받은 때부터 보낼 때까지 (ms) — FastAPI + React · 50항목 맨 앞 삽입: 0.03 ms; 메시지 하나의 서버 처리, 받은 때부터 보낼 때까지 (ms) — FastAPI + 손 JS · 50항목 맨 앞 삽입: 0.03 ms; 브로드캐스트 하나가 연결 1,000개에 모두 닿기까지 (ms) — wireview · 보드 공지 (알림): 434 ms; 브로드캐스트 하나가 연결 1,000개에 모두 닿기까지 (ms) — FastAPI + React · 보드 공지 (알림): 20.7 ms; 브로드캐스트 하나가 연결 1,000개에 모두 닿기까지 (ms) — FastAPI + 손 JS · 보드 공지 (알림): 22.5 ms; 브로드캐스트 하나가 연결 1,000개에 모두 닿기까지 (ms) — wireview · 피드 새 항목 (Broadcast): 18.8 ms; 브로드캐스트 하나가 연결 1,000개에 모두 닿기까지 (ms) — FastAPI + React · 피드 새 항목 (Broadcast): 12.0 ms; 브로드캐스트 하나가 연결 1,000개에 모두 닿기까지 (ms) — FastAPI + 손 JS · 피드 새 항목 (Broadcast): 12.0 ms</desc><style>.bg{fill:#fcfcfb}.t1{fill:#0b0b0b}.t2{fill:#52514e}.t3{fill:#898781}
.grid{stroke:#e1e0d9}.base{stroke:#c3c2b7}
.s0{fill:#2a78d6}.s1{fill:#eb6834}.s2{fill:#1baf7a}
@media (prefers-color-scheme:dark){
.bg{fill:#1a1a19}.t1{fill:#ffffff}.t2{fill:#c3c2b7}.t3{fill:#898781}
.grid{stroke:#2c2c2a}.base{stroke:#383835}
.s0{fill:#3987e5}.s1{fill:#d95926}.s2{fill:#199e70}
}
text{font-family:system-ui,-apple-system,"Segoe UI","Apple SD Gothic Neo","Noto Sans KR",sans-serif}</style><rect class="bg" width="760" height="516" rx="8"/>
<text class="t1" x="24" y="42" font-size="17" font-weight="600">서버가 하는 일</text>
<text class="t2" x="24" y="64" font-size="13">같은 ASGI 래퍼로 잰 서버 처리 시간과 브로드캐스트 팬아웃, 낮을수록 좋다</text>
<rect class="s0" x="24" y="80" width="12" height="12" rx="3"/>
<text class="t2" x="42" y="90" font-size="13">wireview</text>
<rect class="s1" x="134" y="80" width="12" height="12" rx="3"/>
<text class="t2" x="152" y="90" font-size="13">FastAPI + React</text>
<rect class="s2" x="300" y="80" width="12" height="12" rx="3"/>
<text class="t2" x="318" y="90" font-size="13">FastAPI + 손 JS</text>
<text class="t1" x="24" y="130" font-size="14" font-weight="600">메시지 하나의 서버 처리, 받은 때부터 보낼 때까지 (ms)</text>
<text class="t3" x="220" y="270" font-size="11" text-anchor="middle">0</text>
<line class="grid" x1="392" y1="138" x2="392" y2="256"/>
<text class="t3" x="392" y="270" font-size="11" text-anchor="middle">0.5</text>
<line class="grid" x1="564" y1="138" x2="564" y2="256"/>
<text class="t3" x="564" y="270" font-size="11" text-anchor="middle">1</text>
<line class="base" x1="220" y1="138" x2="220" y2="256"/>
<text class="t1" x="24" y="169.5" font-size="13">값 하나 변경</text>
<path class="s0" d="M220 142h286.9a4 4 0 0 1 4 4v6a4 4 0 0 1 -4 4h-286.9z"><title>wireview · 값 하나 변경: 0.85 ms</title></path>
<text class="t2" x="516.9" y="153" font-size="12">0.85 ms</text>
<path class="s1" d="M220 158h5.6a4 4 0 0 1 4 4v6a4 4 0 0 1 -4 4h-5.6z"><title>FastAPI + React · 값 하나 변경: 0.03 ms</title></path>
<text class="t2" x="235.6" y="169" font-size="12">0.03 ms</text>
<path class="s2" d="M220 174h5.8a4 4 0 0 1 4 4v6a4 4 0 0 1 -4 4h-5.8z"><title>FastAPI + 손 JS · 값 하나 변경: 0.03 ms</title></path>
<text class="t2" x="235.8" y="185" font-size="12">0.03 ms</text>
<text class="t1" x="24" y="231.5" font-size="13">50항목 맨 앞 삽입</text>
<path class="s0" d="M220 204h303.6a4 4 0 0 1 4 4v6a4 4 0 0 1 -4 4h-303.6z"><title>wireview · 50항목 맨 앞 삽입: 0.89 ms</title></path>
<text class="t2" x="533.6" y="215" font-size="12">0.89 ms</text>
<path class="s1" d="M220 220h6.8a4 4 0 0 1 4 4v6a4 4 0 0 1 -4 4h-6.8z"><title>FastAPI + React · 50항목 맨 앞 삽입: 0.03 ms</title></path>
<text class="t2" x="236.8" y="231" font-size="12">0.03 ms</text>
<path class="s2" d="M220 236h6.6a4 4 0 0 1 4 4v6a4 4 0 0 1 -4 4h-6.6z"><title>FastAPI + 손 JS · 50항목 맨 앞 삽입: 0.03 ms</title></path>
<text class="t2" x="236.6" y="247" font-size="12">0.03 ms</text>
<text class="t1" x="24" y="300" font-size="14" font-weight="600">브로드캐스트 하나가 연결 1,000개에 모두 닿기까지 (ms)</text>
<text class="t3" x="220" y="440" font-size="11" text-anchor="middle">0</text>
<line class="grid" x1="334.7" y1="308" x2="334.7" y2="426"/>
<text class="t3" x="334.7" y="440" font-size="11" text-anchor="middle">200</text>
<line class="grid" x1="449.3" y1="308" x2="449.3" y2="426"/>
<text class="t3" x="449.3" y="440" font-size="11" text-anchor="middle">400</text>
<line class="grid" x1="564" y1="308" x2="564" y2="426"/>
<text class="t3" x="564" y="440" font-size="11" text-anchor="middle">600</text>
<line class="base" x1="220" y1="308" x2="220" y2="426"/>
<text class="t1" x="24" y="339.5" font-size="13">보드 공지 (알림)</text>
<path class="s0" d="M220 312h244.6a4 4 0 0 1 4 4v6a4 4 0 0 1 -4 4h-244.6z"><title>wireview · 보드 공지 (알림): 434 ms</title></path>
<text class="t2" x="474.6" y="323" font-size="12">434 ms</text>
<path class="s1" d="M220 328h7.8a4 4 0 0 1 4 4v6a4 4 0 0 1 -4 4h-7.8z"><title>FastAPI + React · 보드 공지 (알림): 20.7 ms</title></path>
<text class="t2" x="237.8" y="339" font-size="12">20.7 ms</text>
<path class="s2" d="M220 344h8.9a4 4 0 0 1 4 4v6a4 4 0 0 1 -4 4h-8.9z"><title>FastAPI + 손 JS · 보드 공지 (알림): 22.5 ms</title></path>
<text class="t2" x="238.9" y="355" font-size="12">22.5 ms</text>
<text class="t1" x="24" y="401.5" font-size="13">피드 새 항목 (Broadcast)</text>
<path class="s0" d="M220 374h6.8a4 4 0 0 1 4 4v6a4 4 0 0 1 -4 4h-6.8z"><title>wireview · 피드 새 항목 (Broadcast): 18.8 ms</title></path>
<text class="t2" x="236.8" y="385" font-size="12">18.8 ms</text>
<path class="s1" d="M220 390h3.4a3.4 3.4 0 0 1 3.4 3.4v7.1a3.4 3.4 0 0 1 -3.4 3.4h-3.4z"><title>FastAPI + React · 피드 새 항목 (Broadcast): 12.0 ms</title></path>
<text class="t2" x="232.9" y="401" font-size="12">12.0 ms</text>
<path class="s2" d="M220 406h3.4a3.4 3.4 0 0 1 3.4 3.4v7.1a3.4 3.4 0 0 1 -3.4 3.4h-3.4z"><title>FastAPI + 손 JS · 피드 새 항목 (Broadcast): 12.0 ms</title></path>
<text class="t2" x="232.9" y="417" font-size="12">12.0 ms</text>
<text class="t3" x="24" y="456" font-size="11">Apple M5 Pro · macOS 27.0 · Python 3.12.14 · Django 6.0 · FastAPI 0.142.2 · React 19.3.0 · chromium 141.0.7390.37 headless</text>
<text class="t3" x="24" y="472" font-size="11">uvicorn 1프로세스, localhost · 5회차의 중앙값 · 원본 bench/results/33bf6b9-fastapi.json</text>
<text class="t3" x="24" y="488" font-size="11">피드의 새 항목: 같은 서버·레이어, 3회차의 중앙값 · 원본 bench/results/3ab5818-stream-fanout.json</text>
</svg>
