<svg xmlns="http://www.w3.org/2000/svg" viewBox="0 0 760 624" width="760" height="624" role="img" aria-labelledby="latency-title latency-desc"><title id="latency-title">클릭에서 화면까지</title><desc id="latency-desc">브라우저 안에서 잰 시간, 낮을수록 좋다. 시나리오마다 200번 클릭. 화면에 그려지기까지, 다음 페인트 (ms) — wireview · 값 하나 변경: 11.8 ms (p95 18.3 ms); 화면에 그려지기까지, 다음 페인트 (ms) — FastAPI + React · 값 하나 변경: 10.5 ms (p95 17.2 ms); 화면에 그려지기까지, 다음 페인트 (ms) — FastAPI + 손 JS · 값 하나 변경: 10.7 ms (p95 17.2 ms); 화면에 그려지기까지, 다음 페인트 (ms) — wireview · 50항목 맨 앞 삽입: 11.2 ms (p95 19.0 ms); 화면에 그려지기까지, 다음 페인트 (ms) — FastAPI + React · 50항목 맨 앞 삽입: 9.7 ms (p95 17.4 ms); 화면에 그려지기까지, 다음 페인트 (ms) — FastAPI + 손 JS · 50항목 맨 앞 삽입: 9.7 ms (p95 17.2 ms); 화면에 그려지기까지, 다음 페인트 (ms) — wireview · 다른 사용자에게 브로드캐스트: 12.2 ms (p95 19.0 ms); 화면에 그려지기까지, 다음 페인트 (ms) — FastAPI + React · 다른 사용자에게 브로드캐스트: 9.6 ms (p95 17.0 ms); 화면에 그려지기까지, 다음 페인트 (ms) — FastAPI + 손 JS · 다른 사용자에게 브로드캐스트: 9.2 ms (p95 17.0 ms); DOM이 바뀌기까지 (ms) — wireview는 패치를 다음 프레임에 쓴다 — wireview · 값 하나 변경: 11.5 ms (p95 18.0 ms); DOM이 바뀌기까지 (ms) — wireview는 패치를 다음 프레임에 쓴다 — FastAPI + React · 값 하나 변경: 0.70 ms (p95 1.1 ms); DOM이 바뀌기까지 (ms) — wireview는 패치를 다음 프레임에 쓴다 — FastAPI + 손 JS · 값 하나 변경: 0.55 ms (p95 0.90 ms); DOM이 바뀌기까지 (ms) — wireview는 패치를 다음 프레임에 쓴다 — wireview · 50항목 맨 앞 삽입: 10.6 ms (p95 18.2 ms); DOM이 바뀌기까지 (ms) — wireview는 패치를 다음 프레임에 쓴다 — FastAPI + React · 50항목 맨 앞 삽입: 0.80 ms (p95 1.2 ms); DOM이 바뀌기까지 (ms) — wireview는 패치를 다음 프레임에 쓴다 — FastAPI + 손 JS · 50항목 맨 앞 삽입: 0.60 ms (p95 0.90 ms); DOM이 바뀌기까지 (ms) — wireview는 패치를 다음 프레임에 쓴다 — wireview · 다른 사용자에게 브로드캐스트: 12.0 ms (p95 18.7 ms); DOM이 바뀌기까지 (ms) — wireview는 패치를 다음 프레임에 쓴다 — FastAPI + React · 다른 사용자에게 브로드캐스트: 0.70 ms (p95 0.90 ms); DOM이 바뀌기까지 (ms) — wireview는 패치를 다음 프레임에 쓴다 — FastAPI + 손 JS · 다른 사용자에게 브로드캐스트: 0.50 ms (p95 0.70 ms)</desc><style>.bg{fill:#fcfcfb}.t1{fill:#0b0b0b}.t2{fill:#52514e}.t3{fill:#898781}
.grid{stroke:#e1e0d9}.base{stroke:#c3c2b7}
.s0{fill:#2a78d6}.s1{fill:#eb6834}.s2{fill:#1baf7a}
@media (prefers-color-scheme:dark){
.bg{fill:#1a1a19}.t1{fill:#ffffff}.t2{fill:#c3c2b7}.t3{fill:#898781}
.grid{stroke:#2c2c2a}.base{stroke:#383835}
.s0{fill:#3987e5}.s1{fill:#d95926}.s2{fill:#199e70}
}
text{font-family:system-ui,-apple-system,"Segoe UI","Apple SD Gothic Neo","Noto Sans KR",sans-serif}</style><rect class="bg" width="760" height="624" rx="8"/>
<text class="t1" x="24" y="42" font-size="17" font-weight="600">클릭에서 화면까지</text>
<text class="t2" x="24" y="64" font-size="13">브라우저 안에서 잰 시간, 낮을수록 좋다. 시나리오마다 200번 클릭</text>
<rect class="s0" x="24" y="80" width="12" height="12" rx="3"/>
<text class="t2" x="42" y="90" font-size="13">wireview</text>
<rect class="s1" x="134" y="80" width="12" height="12" rx="3"/>
<text class="t2" x="152" y="90" font-size="13">FastAPI + React</text>
<rect class="s2" x="300" y="80" width="12" height="12" rx="3"/>
<text class="t2" x="318" y="90" font-size="13">FastAPI + 손 JS</text>
<text class="t1" x="24" y="130" font-size="14" font-weight="600">화면에 그려지기까지, 다음 페인트 (ms)</text>
<text class="t3" x="220" y="332" font-size="11" text-anchor="middle">0</text>
<line class="grid" x1="334.7" y1="138" x2="334.7" y2="318"/>
<text class="t3" x="334.7" y="332" font-size="11" text-anchor="middle">5</text>
<line class="grid" x1="449.3" y1="138" x2="449.3" y2="318"/>
<text class="t3" x="449.3" y="332" font-size="11" text-anchor="middle">10</text>
<line class="grid" x1="564" y1="138" x2="564" y2="318"/>
<text class="t3" x="564" y="332" font-size="11" text-anchor="middle">15</text>
<line class="base" x1="220" y1="138" x2="220" y2="318"/>
<text class="t1" x="24" y="169.5" font-size="13">값 하나 변경</text>
<path class="s0" d="M220 142h265.5a4 4 0 0 1 4 4v6a4 4 0 0 1 -4 4h-265.5z"><title>wireview · 값 하나 변경: 11.8 ms (p95 18.3 ms)</title></path>
<text class="t2" x="495.5" y="153" font-size="12">11.8 ms (p95 18.3 ms)</text>
<path class="s1" d="M220 158h237.9a4 4 0 0 1 4 4v6a4 4 0 0 1 -4 4h-237.9z"><title>FastAPI + React · 값 하나 변경: 10.5 ms (p95 17.2 ms)</title></path>
<text class="t2" x="467.9" y="169" font-size="12">10.5 ms (p95 17.2 ms)</text>
<path class="s2" d="M220 174h241.4a4 4 0 0 1 4 4v6a4 4 0 0 1 -4 4h-241.4z"><title>FastAPI + 손 JS · 값 하나 변경: 10.7 ms (p95 17.2 ms)</title></path>
<text class="t2" x="471.4" y="185" font-size="12">10.7 ms (p95 17.2 ms)</text>
<text class="t1" x="24" y="231.5" font-size="13">50항목 맨 앞 삽입</text>
<path class="s0" d="M220 204h252.9a4 4 0 0 1 4 4v6a4 4 0 0 1 -4 4h-252.9z"><title>wireview · 50항목 맨 앞 삽입: 11.2 ms (p95 19.0 ms)</title></path>
<text class="t2" x="482.9" y="215" font-size="12">11.2 ms (p95 19.0 ms)</text>
<path class="s1" d="M220 220h217.3a4 4 0 0 1 4 4v6a4 4 0 0 1 -4 4h-217.3z"><title>FastAPI + React · 50항목 맨 앞 삽입: 9.7 ms (p95 17.4 ms)</title></path>
<text class="t2" x="447.3" y="231" font-size="12">9.7 ms (p95 17.4 ms)</text>
<path class="s2" d="M220 236h218.5a4 4 0 0 1 4 4v6a4 4 0 0 1 -4 4h-218.5z"><title>FastAPI + 손 JS · 50항목 맨 앞 삽입: 9.7 ms (p95 17.2 ms)</title></path>
<text class="t2" x="448.5" y="247" font-size="12">9.7 ms (p95 17.2 ms)</text>
<text class="t1" x="24" y="293.5" font-size="13">다른 사용자에게 브로드캐스트</text>
<path class="s0" d="M220 266h275.8a4 4 0 0 1 4 4v6a4 4 0 0 1 -4 4h-275.8z"><title>wireview · 다른 사용자에게 브로드캐스트: 12.2 ms (p95 19.0 ms)</title></path>
<text class="t2" x="505.8" y="277" font-size="12">12.2 ms (p95 19.0 ms)</text>
<path class="s1" d="M220 282h217.3a4 4 0 0 1 4 4v6a4 4 0 0 1 -4 4h-217.3z"><title>FastAPI + React · 다른 사용자에게 브로드캐스트: 9.6 ms (p95 17.0 ms)</title></path>
<text class="t2" x="447.3" y="293" font-size="12">9.6 ms (p95 17.0 ms)</text>
<path class="s2" d="M220 298h205.8a4 4 0 0 1 4 4v6a4 4 0 0 1 -4 4h-205.8z"><title>FastAPI + 손 JS · 다른 사용자에게 브로드캐스트: 9.2 ms (p95 17.0 ms)</title></path>
<text class="t2" x="435.8" y="309" font-size="12">9.2 ms (p95 17.0 ms)</text>
<text class="t1" x="24" y="362" font-size="14" font-weight="600">DOM이 바뀌기까지 (ms) — wireview는 패치를 다음 프레임에 쓴다</text>
<text class="t3" x="220" y="564" font-size="11" text-anchor="middle">0</text>
<line class="grid" x1="334.7" y1="370" x2="334.7" y2="550"/>
<text class="t3" x="334.7" y="564" font-size="11" text-anchor="middle">5</text>
<line class="grid" x1="449.3" y1="370" x2="449.3" y2="550"/>
<text class="t3" x="449.3" y="564" font-size="11" text-anchor="middle">10</text>
<line class="grid" x1="564" y1="370" x2="564" y2="550"/>
<text class="t3" x="564" y="564" font-size="11" text-anchor="middle">15</text>
<line class="base" x1="220" y1="370" x2="220" y2="550"/>
<text class="t1" x="24" y="401.5" font-size="13">값 하나 변경</text>
<path class="s0" d="M220 374h260.9a4 4 0 0 1 4 4v6a4 4 0 0 1 -4 4h-260.9z"><title>wireview · 값 하나 변경: 11.5 ms (p95 18.0 ms)</title></path>
<text class="t2" x="490.9" y="385" font-size="12">11.5 ms (p95 18.0 ms)</text>
<path class="s1" d="M220 390h12.1a4 4 0 0 1 4 4v6a4 4 0 0 1 -4 4h-12.1z"><title>FastAPI + React · 값 하나 변경: 0.70 ms (p95 1.1 ms)</title></path>
<text class="t2" x="242.1" y="401" font-size="12">0.70 ms (p95 1.1 ms)</text>
<path class="s2" d="M220 406h8.6a4 4 0 0 1 4 4v6a4 4 0 0 1 -4 4h-8.6z"><title>FastAPI + 손 JS · 값 하나 변경: 0.55 ms (p95 0.90 ms)</title></path>
<text class="t2" x="238.6" y="417" font-size="12">0.55 ms (p95 0.90 ms)</text>
<text class="t1" x="24" y="463.5" font-size="13">50항목 맨 앞 삽입</text>
<path class="s0" d="M220 436h240.2a4 4 0 0 1 4 4v6a4 4 0 0 1 -4 4h-240.2z"><title>wireview · 50항목 맨 앞 삽입: 10.6 ms (p95 18.2 ms)</title></path>
<text class="t2" x="470.2" y="447" font-size="12">10.6 ms (p95 18.2 ms)</text>
<path class="s1" d="M220 452h14.3a4 4 0 0 1 4 4v6a4 4 0 0 1 -4 4h-14.3z"><title>FastAPI + React · 50항목 맨 앞 삽입: 0.80 ms (p95 1.2 ms)</title></path>
<text class="t2" x="244.3" y="463" font-size="12">0.80 ms (p95 1.2 ms)</text>
<path class="s2" d="M220 468h9.8a4 4 0 0 1 4 4v6a4 4 0 0 1 -4 4h-9.8z"><title>FastAPI + 손 JS · 50항목 맨 앞 삽입: 0.60 ms (p95 0.90 ms)</title></path>
<text class="t2" x="239.8" y="479" font-size="12">0.60 ms (p95 0.90 ms)</text>
<text class="t1" x="24" y="525.5" font-size="13">다른 사용자에게 브로드캐스트</text>
<path class="s0" d="M220 498h272.3a4 4 0 0 1 4 4v6a4 4 0 0 1 -4 4h-272.3z"><title>wireview · 다른 사용자에게 브로드캐스트: 12.0 ms (p95 18.7 ms)</title></path>
<text class="t2" x="502.3" y="509" font-size="12">12.0 ms (p95 18.7 ms)</text>
<path class="s1" d="M220 514h12.1a4 4 0 0 1 4 4v6a4 4 0 0 1 -4 4h-12.1z"><title>FastAPI + React · 다른 사용자에게 브로드캐스트: 0.70 ms (p95 0.90 ms)</title></path>
<text class="t2" x="242.1" y="525" font-size="12">0.70 ms (p95 0.90 ms)</text>
<path class="s2" d="M220 530h7.5a4 4 0 0 1 4 4v6a4 4 0 0 1 -4 4h-7.5z"><title>FastAPI + 손 JS · 다른 사용자에게 브로드캐스트: 0.50 ms (p95 0.70 ms)</title></path>
<text class="t2" x="237.5" y="541" font-size="12">0.50 ms (p95 0.70 ms)</text>
<text class="t3" x="24" y="580" font-size="11">Apple M5 Pro · macOS 27.0 · Python 3.12.14 · Django 6.0 · FastAPI 0.142.2 · React 19.3.0 · chromium 141.0.7390.37 headless</text>
<text class="t3" x="24" y="596" font-size="11">uvicorn 1프로세스, localhost · 5회차의 중앙값 · 원본 bench/results/33bf6b9-fastapi.json</text>
</svg>
